<svg id="Layer_2" data-name="Layer 2" xmlns="http://www.w3.org/2000/svg" xmlns:xlink="http://www.w3.org/1999/xlink" viewBox="0 0 400 300" width="406" height="306" class="illustration styles_illustrationTablet__1DWOa"><defs><linearGradient id="linear-gradient" x1="107.95" y1="225.08" x2="122.91" y2="200.24" gradientUnits="userSpaceOnUse"><stop offset="0" stop-color="#ff9f9f"></stop><stop offset="1" stop-color="#f26250"></stop></linearGradient><linearGradient id="linear-gradient-2" x1="202.61" y1="270.11" x2="214.7" y2="250.04" xlink:href="#linear-gradient"></linearGradient><linearGradient id="linear-gradient-3" x1="227.86" y1="177.9" x2="243.45" y2="152.02" xlink:href="#linear-gradient"></linearGradient></defs><title>PP</title><path d="M194.28,291.27,14.56,185.05c-5.72-3.21-10.63-8.49-5.05-11.94l180.37-104c2.71-1.68,6.82-2.78,9.57-1.18L388.11,177.47c5.72,3.32,6.75,12.6,1,15.93L218,291.1A23.9,23.9,0,0,1,194.28,291.27Z" fill="#ff9f9f"></path><path d="M170.48,240.11,74.28,187.3,49,199.23,148.1,257l22.67-12.56C170.68,243,170.59,241.55,170.48,240.11Z" fill="url(#linear-gradient)"></path><polygon points="189.34 246.4 240.99 274.75 219.78 285.71 168.96 257.62 189.34 246.4" fill="url(#linear-gradient-2)"></polygon><polygon points="313.88 205.9 284.38 222 148.83 138.31 175.14 124.46 313.88 205.9" fill="url(#linear-gradient-3)"></polygon><path d="M73.49,161.16v27.56c0,3.86,6,3.87,6,0V161.16C79.49,157.3,73.49,157.29,73.49,161.16Z" fill="#486db5"></path><path d="M166.31,214.43V242c0,3.86,6,3.87,6,0V214.43C172.31,210.57,166.31,210.56,166.31,214.43Z" fill="#486db5"></path><path d="M210.4,239.55V267.1c0,3.86,6,3.87,6,0V239.55C216.4,235.68,210.4,235.68,210.4,239.55Z" fill="#486db5"></path><path d="M169.14,101.89v27.56c0,3.86,6,3.87,6,0V101.89C175.14,98,169.14,98,169.14,101.89Z" fill="#486db5"></path><path d="M307.88,178.34V205.9c0,3.86,6,3.87,6,0V178.34C313.88,174.48,307.88,174.47,307.88,178.34Z" fill="#486db5"></path><path d="M313.88,195.16V93c0-3.39-.47-5.29-3.08-6.71L172.07,6a1.84,1.84,0,0,0-2.93,1.48l.34,105Z" fill="#e5016e"></path><ellipse cx="183.2" cy="30.52" rx="5.27" ry="6.03" transform="translate(3.03 75.62) rotate(-23.51)" fill="#fff"></ellipse><polygon points="288.39 123.44 288.39 161.73 280.45 157.09 280.37 118.81 288.39 123.44" fill="#5fad00"></polygon><polygon points="275.05 109.29 275.19 154.31 266.87 149.47 266.87 104.67 275.05 109.29" fill="#f8997c"></polygon><polygon points="261.61 97.11 261.74 146.79 254.32 142.48 254.32 92.67 261.61 97.11" fill="#fff"></polygon><ellipse cx="183.2" cy="46.35" rx="5.27" ry="6.03" transform="translate(-3.28 76.93) rotate(-23.51)" fill="#f8997c"></ellipse><ellipse cx="183.2" cy="61.68" rx="5.27" ry="6.03" transform="matrix(0.83, -0.56, 0.56, 0.83, -3.35, 112.32)" fill="#5fad00"></ellipse><path d="M210.11,53.68c12.61-4,26.75,6.29,32.19,23.43a39,39,0,0,1,.58,22.95c-2.31,7.51-7.06,12.75-13.37,14.76a18.2,18.2,0,0,1-5.53.86,22.85,22.85,0,0,1-13.91-5.2,39,39,0,0,1-12.76-19.08C191.88,74.25,197.5,57.69,210.11,53.68Z" fill="#fff"></path><path d="M219.79,53.27c.1,0,0,31.77,0,31.77L196.47,69.15S201,50,219.79,53.27Z" fill="#f8997c"></path><path d="M287.69,166.43v0a1.83,1.83,0,0,1-2.73,1.59l-34.12-19.49a1.83,1.83,0,0,1-.92-1.59h0a1.83,1.83,0,0,1,2.73-1.59l34.12,19.44A1.83,1.83,0,0,1,287.69,166.43Z" fill="#ffe427"></path><path d="M295.13,91.67v13.81a1.94,1.94,0,0,1-2.91,1.68L254.67,85.47a1.94,1.94,0,0,1-1-1.68V70a1.94,1.94,0,0,1,2.91-1.68L294.16,90A1.94,1.94,0,0,1,295.13,91.67Z" fill="#ffe427"></path><ellipse cx="286.72" cy="95.14" rx="4.9" ry="6.12" transform="translate(-15.35 91.18) rotate(-17.61)" fill="#fff"></ellipse><path d="M280.75,86.66l-22-12.29c-.84-.47-1.6.82-.76,1.3L280,88c.84.47,1.6-.82.76-1.3Z" fill="#7f47dd"></path><path d="M279.93,92l-13.64-7.64c-.84-.47-1.6.82-.76,1.3l13.64,7.64c.84.47,1.6-.82.76-1.3Z" fill="#7f47dd"></path><path d="M219.79,85l-23.63,2s-3-10.2.31-17.85Z" fill="#5fad00"></path><polygon points="172.31 149.69 73.49 90.7 73.49 173.41 172.31 229.29 172.31 149.69" fill="#e5016e"></polygon><line x1="81.1" y1="103.93" x2="81.1" y2="172.68" fill="none" stroke="#29abe2" stroke-miterlimit="10"></line><line x1="98.17" y1="114.61" x2="98.17" y2="183.36" fill="none" stroke="#29abe2" stroke-miterlimit="10"></line><line x1="124.86" y1="130.48" x2="124.86" y2="199.23" fill="none" stroke="#29abe2" stroke-miterlimit="10"></line><line x1="144.15" y1="140.96" x2="144.15" y2="209.71" fill="none" stroke="#29abe2" stroke-miterlimit="10"></line><line x1="161.41" y1="152.13" x2="161.41" y2="220.88" fill="none" stroke="#29abe2" stroke-miterlimit="10"></line><path d="M82.63,162.42S87,141.07,95.76,144.93c9.3,4.1.83,21.7,10.92,26.95,9.76,5.08,6.93-32.06,18.21-27.68,10.08,3.91,6.31,18.91,6.32,26.58,0,3.54-1.19,16.67,5.7,18.68C149,193,144,156.82,159.53,165" fill="none" stroke="#fff" stroke-miterlimit="10"></path><ellipse cx="82.63" cy="162.57" rx="1.89" ry="2.28" fill="#fff"></ellipse><ellipse cx="159.53" cy="165.54" rx="1.89" ry="2.28" fill="#fff"></ellipse><ellipse cx="116.41" cy="152.13" rx="1.89" ry="2.28" fill="#fff"></ellipse><ellipse cx="131.28" cy="167.83" rx="1.89" ry="2.28" fill="#fff"></ellipse><polygon points="244.53 270 192.89 241.65 192.89 153.8 244.53 183.62 244.53 270" fill="#e5016e"></polygon><path d="M234.81,212.9V231.1c0,5.29-8.22,5.3-8.22,0V212.9C226.59,207.61,234.81,207.6,234.81,212.9Z" fill="#5fad00"></path><path d="M223.64,194.22v29.38c0,5.29-8.22,5.3-8.22,0V194.22C215.42,188.93,223.64,188.92,223.64,194.22Z" fill="#ffa197"></path><path d="M210.4,172.93V218c0,5.29-8.22,5.3-8.22,0v-45.1C202.18,167.64,210.4,167.63,210.4,172.93Z" fill="#f2f2f2"></path><path d="M220.62,236.21l10.16,5.34c1.44.76.16,2.94-1.28,2.18l-10.16-5.34C217.9,237.63,219.18,235.45,220.62,236.21Z" fill="#f2f2f2"></path><path d="M202.81,234.87q14.18,7.6,28.65,14.64c1.46.71.18,2.89-1.28,2.18q-14.47-7-28.65-14.64C200.1,236.29,201.37,234.1,202.81,234.87Z" fill="#f2f2f2"></path></svg>